<?xml version="1.0" standalone="no"?>
<!DOCTYPE svg PUBLIC "-//W3C//DTD SVG 20010904//EN"
 "http://www.w3.org/TR/2001/REC-SVG-20010904/DTD/svg10.dtd">
<svg version="1.0" xmlns="http://www.w3.org/2000/svg"
 width="996.000000pt" height="228.000000pt" viewBox="0 0 996.000000 228.000000"
 preserveAspectRatio="xMidYMid meet">

<g transform="translate(0.000000,228.000000) scale(0.100000,-0.100000)"
fill="#000000" stroke="none">
<path d="M862 1761 c-46 -10 -88 -23 -95 -30 -6 -6 -16 -11 -23 -11 -6 0 -33
-10 -60 -22 -27 -12 -53 -21 -57 -20 -5 1 -6 -2 -2 -8 3 -5 -17 -34 -46 -62
-156 -159 -224 -343 -199 -540 32 -255 195 -455 434 -535 70 -23 97 -27 196
-27 97 1 128 5 196 27 119 40 255 134 319 221 16 22 33 43 37 44 5 2 6 8 2 13
-3 5 -1 9 5 9 5 0 19 30 31 66 16 48 25 63 32 53 6 -10 7 -7 3 9 -4 13 -2 44
4 70 15 69 22 220 9 224 -5 2 -11 23 -12 46 -1 23 -7 47 -14 54 -7 7 -12 16
-12 21 0 21 -47 107 -85 157 -66 86 -143 149 -232 192 -143 68 -272 83 -431
49z m241 -357 c138 -47 215 -203 173 -349 -23 -77 -98 -154 -175 -180 -144
-47 -302 28 -356 168 -22 57 -17 164 10 217 34 68 106 130 175 151 43 13 124
10 173 -7z"/>
<path d="M2365 1748 c-3 -7 -4 -233 -3 -503 l3 -490 47 -8 c27 -5 69 -5 95 0
l48 8 3 152 3 151 152 4 c142 3 156 5 209 31 75 37 134 98 172 177 79 168 3
376 -169 460 -48 24 -58 25 -303 28 -201 3 -253 1 -257 -10z m485 -197 c104
-55 116 -198 22 -269 -34 -26 -41 -27 -174 -30 l-138 -4 0 161 0 161 128 0
c105 0 133 -3 162 -19z"/>
<path d="M5503 1754 c-10 -5 -13 -114 -13 -499 0 -485 0 -494 20 -500 30 -9
162 -7 172 3 4 4 7 231 6 503 l-3 494 -85 2 c-47 1 -91 -1 -97 -3z"/>
<path d="M6570 1261 c0 -446 2 -500 16 -505 20 -8 148 -8 168 0 14 5 16 30 16
175 l0 169 192 2 193 3 8 47 c5 27 5 69 0 95 l-8 48 -193 3 -192 2 0 135 0
135 257 2 257 3 9 44 c5 24 5 64 0 90 l-8 46 -358 3 -357 2 0 -499z"/>
<path d="M7432 1752 c-10 -7 -12 -114 -10 -503 l3 -494 95 0 95 0 3 494 c2
389 0 496 -10 503 -7 4 -47 8 -88 8 -41 0 -81 -4 -88 -8z"/>
<path d="M3434 1439 c-109 -14 -204 -84 -252 -187 -24 -50 -27 -69 -27 -162 0
-94 3 -111 27 -161 51 -103 137 -167 255 -189 117 -21 260 20 332 94 l33 34
-42 46 c-52 56 -75 64 -103 38 -45 -40 -87 -54 -152 -50 -49 3 -70 10 -99 31
-31 24 -66 73 -66 92 0 3 108 5 240 5 l240 0 6 26 c4 14 1 57 -5 96 -33 202
-182 313 -387 287z m140 -178 c30 -20 66 -68 66 -88 0 -10 -37 -13 -150 -13
-82 0 -150 3 -150 8 0 19 43 74 72 92 43 26 123 27 162 1z"/>
<path d="M4713 1443 c-10 -4 -13 -111 -13 -488 0 -548 -10 -495 95 -495 101 0
95 -10 95 165 l0 152 58 -20 c81 -27 189 -20 265 17 119 58 199 185 198 317 0
153 -99 294 -233 334 -66 19 -175 19 -232 0 -43 -15 -46 -15 -66 5 -16 16 -32
20 -87 19 -38 0 -74 -3 -80 -6z m428 -206 c116 -62 117 -236 2 -293 -124 -61
-262 27 -251 160 5 65 33 107 90 135 56 27 104 27 159 -2z"/>
<path d="M6063 1439 c-108 -14 -204 -86 -251 -187 -24 -50 -27 -69 -27 -162 0
-87 4 -113 22 -152 28 -62 96 -134 153 -163 139 -70 340 -44 439 59 l33 34
-42 46 c-52 56 -75 64 -103 38 -12 -11 -37 -27 -56 -37 -47 -23 -150 -17 -188
11 -28 21 -73 80 -73 95 0 5 108 9 240 9 l240 0 6 26 c10 39 -13 160 -41 212
-32 61 -41 72 -96 114 -66 50 -158 71 -256 57z m144 -180 c31 -19 63 -64 63
-89 0 -6 -52 -10 -150 -10 -82 0 -150 3 -150 8 0 19 43 74 72 92 45 27 120 27
165 -1z"/>
<path d="M8017 1440 c-70 -12 -136 -48 -193 -105 -69 -69 -97 -142 -98 -251 0
-72 4 -90 32 -147 38 -77 101 -139 180 -175 82 -38 202 -38 284 0 114 53 186
147 209 270 10 57 10 76 -4 134 -47 190 -220 305 -410 274z m142 -210 c53 -27
81 -74 81 -139 0 -85 -41 -140 -121 -161 -83 -23 -176 33 -199 118 -36 137
109 249 239 182z"/>
<path d="M4160 1431 c-93 -30 -178 -104 -219 -191 -23 -48 -26 -68 -26 -155 0
-121 20 -172 102 -252 69 -68 141 -96 243 -96 105 0 178 29 251 102 73 73 102
145 102 254 0 69 -4 86 -37 152 -39 79 -84 123 -166 166 -35 18 -65 23 -135
26 -49 1 -101 -1 -115 -6z m179 -201 c52 -26 83 -78 83 -139 0 -151 -170 -222
-277 -116 -37 38 -51 83 -42 145 14 104 136 161 236 110z"/>
<path d="M8463 1432 c-9 -6 17 -98 99 -347 60 -187 115 -343 122 -347 19 -13
143 -9 154 5 5 6 41 90 80 185 71 175 81 196 89 177 2 -5 36 -91 76 -190 l73
-180 75 -3 c53 -2 79 1 86 10 6 7 22 49 36 93 14 44 62 194 107 334 51 157 78
257 73 262 -6 6 -50 9 -99 7 l-89 -3 -60 -182 c-33 -100 -63 -184 -66 -187 -3
-3 -37 78 -75 181 l-70 188 -76 3 -76 3 -22 -58 c-12 -32 -42 -114 -67 -183
-25 -69 -49 -128 -52 -132 -4 -4 -33 72 -65 170 -32 97 -63 183 -69 190 -11
13 -163 17 -184 4z"/>
</g>
</svg>
